<svg width="309" height="130" viewBox="0 0 309 130" fill="none" xmlns="http://www.w3.org/2000/svg">
<path d="M206.76 85.44C201.8 85.44 197.44 84.72 193.68 83.28C189.92 81.76 186.76 79.36 184.2 76.08C181.72 72.72 179.84 68.32 178.56 62.88C177.36 57.44 176.76 50.76 176.76 42.84C176.76 34.84 177.36 28.16 178.56 22.8C179.84 17.36 181.72 12.96 184.2 9.6C186.76 6.24 189.92 3.83999 193.68 2.4C197.44 0.959999 201.8 0.239998 206.76 0.239998C211.8 0.239998 216.16 0.959999 219.84 2.4C223.52 3.83999 226.6 6.24 229.08 9.6C231.64 12.96 233.52 17.36 234.72 22.8C236 28.16 236.64 34.84 236.64 42.84C236.64 50.76 236 57.44 234.72 62.88C233.52 68.32 231.64 72.72 229.08 76.08C226.6 79.36 223.52 81.76 219.84 83.28C216.16 84.72 211.8 85.44 206.76 85.44ZM206.76 72.48C210.28 72.48 212.96 71.56 214.8 69.72C216.64 67.8 217.92 64.92 218.64 61.08C219.36 57.24 219.72 52.44 219.72 46.68V39.24C219.72 33.4 219.36 28.56 218.64 24.72C217.92 20.8 216.64 17.88 214.8 15.96C212.96 14.04 210.28 13.08 206.76 13.08C203.24 13.08 200.52 14.04 198.6 15.96C196.76 17.88 195.48 20.76 194.76 24.6C194.04 28.36 193.68 33.16 193.68 39V46.44C193.68 52.28 194.04 57.16 194.76 61.08C195.48 64.92 196.76 67.8 198.6 69.72C200.52 71.56 203.24 72.48 206.76 72.48ZM278.367 85.44C271.647 85.44 266.007 84.4 261.447 82.32C256.887 80.24 253.447 77.36 251.127 73.68C248.807 70 247.647 65.76 247.647 60.96V58.92H263.847V61.2C263.847 64.72 265.007 67.48 267.327 69.48C269.727 71.48 273.167 72.48 277.647 72.48C281.967 72.48 285.327 71.48 287.727 69.48C290.127 67.48 291.327 64.4 291.327 60.24C291.327 57.12 290.687 54.72 289.407 53.04C288.127 51.36 286.447 50.16 284.367 49.44C282.367 48.72 280.167 48.36 277.767 48.36H270.447V35.76H277.647C279.887 35.76 281.887 35.36 283.647 34.56C285.487 33.68 286.927 32.4 287.967 30.72C289.087 29.04 289.647 26.88 289.647 24.24C289.647 21.76 289.127 19.72 288.087 18.12C287.127 16.44 285.727 15.2 283.887 14.4C282.127 13.6 280.087 13.2 277.767 13.2C275.447 13.2 273.327 13.6 271.407 14.4C269.567 15.2 268.127 16.4 267.087 18C266.047 19.6 265.527 21.6 265.527 24V25.8H249.567V22.8C249.567 18.32 250.727 14.4 253.047 11.04C255.447 7.6 258.807 4.96 263.127 3.12C267.447 1.2 272.447 0.239998 278.127 0.239998C283.807 0.239998 288.767 1.12 293.007 2.87999C297.327 4.63999 300.647 7.24 302.967 10.68C305.367 14.04 306.567 18.04 306.567 22.68C306.567 25.8 305.967 28.56 304.767 30.96C303.647 33.36 302.127 35.4 300.207 37.08C298.287 38.68 296.087 40.04 293.607 41.16V41.64C297.927 42.92 301.447 45.28 304.167 48.72C306.967 52.08 308.367 56.44 308.367 61.8C308.287 66.6 307.007 70.76 304.527 74.28C302.127 77.8 298.687 80.56 294.207 82.56C289.727 84.48 284.447 85.44 278.367 85.44Z" fill="#222222" fill-opacity="0.04"/>
<path d="M43.6883 108.356C43.5241 108.356 43.3574 108.316 43.2029 108.232C42.708 107.964 42.5245 107.345 42.7932 106.85C46.9821 99.131 49.106 91.8283 49.106 85.1449C49.106 72.4042 38.7407 62.039 26.0001 62.039C24.4556 62.039 22.9119 62.1921 21.4117 62.4944C20.8603 62.6059 20.3222 62.2482 20.2111 61.6963C20.0999 61.1443 20.4573 60.6066 21.0092 60.4955C22.6414 60.1668 24.3205 60 26 60C39.8649 60 51.1449 71.28 51.1449 85.1449C51.1449 92.1717 48.9379 99.8016 44.5851 107.823C44.4006 108.163 44.05 108.356 43.6883 108.356Z" fill="#BEAD8E"/>
<path d="M26 130C24.9183 130 23.9059 129.574 23.1493 128.8C20.2411 125.825 14.6403 119.675 9.80321 111.917C3.86579 102.394 0.855103 93.3865 0.855103 85.1448C0.855103 75.0163 6.88303 65.9221 16.2122 61.9763C16.731 61.757 17.3289 61.9994 17.5483 62.5181C17.7678 63.0367 17.5251 63.635 17.0066 63.8543C8.43356 67.4803 2.89413 75.8373 2.89413 85.1448C2.89413 103.718 19.5137 122.163 24.6074 127.374C24.9771 127.753 25.4717 127.961 26 127.961C26.5283 127.961 27.0229 127.753 27.3926 127.374C30.2228 124.479 35.6756 118.495 40.3966 110.95C40.6955 110.473 41.3245 110.328 41.8018 110.627C42.2791 110.925 42.4239 111.554 42.1253 112.032C37.3027 119.739 31.7382 125.846 28.8507 128.8C28.0941 129.574 27.0817 130 26 130Z" fill="#BEAD8E"/>
<path d="M26 96.6312C23.4001 96.6312 20.9395 95.7948 18.8845 94.2124C18.4383 93.8689 18.3551 93.2288 18.6987 92.7826C19.0422 92.3366 19.6822 92.2531 20.1283 92.5968C21.8238 93.9022 23.8542 94.5922 26.0001 94.5922C31.3126 94.5922 35.6344 90.2702 35.6344 84.9579C35.6344 79.6455 31.3125 75.3234 26 75.3234C20.6875 75.3234 16.3657 79.6454 16.3657 84.9577C16.3657 86.4421 16.6939 87.8653 17.3414 89.1878C17.589 89.6935 17.3797 90.3043 16.874 90.5519C16.3677 90.7992 15.7574 90.59 15.51 90.0844C14.7248 88.4804 14.3267 86.7556 14.3267 84.9577C14.3267 78.521 19.5633 73.2844 26 73.2844C32.4367 73.2844 37.6733 78.521 37.6733 84.9577C37.6733 91.3945 32.4367 96.6312 26 96.6312Z" fill="#BEAD8E"/>
</svg>
