<svg width="312" height="128" viewBox="0 0 312 128" fill="none" xmlns="http://www.w3.org/2000/svg">
<path d="M209.76 85.44C204.8 85.44 200.44 84.72 196.68 83.28C192.92 81.76 189.76 79.36 187.2 76.08C184.72 72.72 182.84 68.32 181.56 62.88C180.36 57.44 179.76 50.76 179.76 42.84C179.76 34.84 180.36 28.16 181.56 22.8C182.84 17.36 184.72 12.96 187.2 9.6C189.76 6.24 192.92 3.83999 196.68 2.4C200.44 0.959999 204.8 0.239998 209.76 0.239998C214.8 0.239998 219.16 0.959999 222.84 2.4C226.52 3.83999 229.6 6.24 232.08 9.6C234.64 12.96 236.52 17.36 237.72 22.8C239 28.16 239.64 34.84 239.64 42.84C239.64 50.76 239 57.44 237.72 62.88C236.52 68.32 234.64 72.72 232.08 76.08C229.6 79.36 226.52 81.76 222.84 83.28C219.16 84.72 214.8 85.44 209.76 85.44ZM209.76 72.48C213.28 72.48 215.96 71.56 217.8 69.72C219.64 67.8 220.92 64.92 221.64 61.08C222.36 57.24 222.72 52.44 222.72 46.68V39.24C222.72 33.4 222.36 28.56 221.64 24.72C220.92 20.8 219.64 17.88 217.8 15.96C215.96 14.04 213.28 13.08 209.76 13.08C206.24 13.08 203.52 14.04 201.6 15.96C199.76 17.88 198.48 20.76 197.76 24.6C197.04 28.36 196.68 33.16 196.68 39V46.44C196.68 52.28 197.04 57.16 197.76 61.08C198.48 64.92 199.76 67.8 201.6 69.72C203.52 71.56 206.24 72.48 209.76 72.48ZM282.687 85.44C277.647 85.44 273.167 84.72 269.247 83.28C265.407 81.84 262.127 79.56 259.407 76.44C256.687 73.32 254.647 69.2 253.287 64.08C251.927 58.88 251.247 52.56 251.247 45.12C251.247 36.72 251.927 29.64 253.287 23.88C254.647 18.12 256.607 13.52 259.167 10.08C261.807 6.56 265.047 4.04 268.887 2.52C272.727 0.999998 277.167 0.239998 282.207 0.239998C288.287 0.239998 293.327 1.36 297.327 3.6C301.407 5.84 304.407 8.92 306.327 12.84C308.327 16.68 309.327 21.16 309.327 26.28H293.127C293.127 23.48 292.727 21.12 291.927 19.2C291.127 17.2 289.887 15.68 288.207 14.64C286.527 13.6 284.407 13.08 281.847 13.08C278.087 13.08 275.207 14.08 273.207 16.08C271.287 18 269.967 20.84 269.247 24.6C268.607 28.36 268.247 32.92 268.167 38.28C268.967 37.48 270.167 36.52 271.767 35.4C273.447 34.28 275.527 33.32 278.007 32.52C280.487 31.64 283.167 31.2 286.047 31.2C291.727 31.2 296.487 32.36 300.327 34.68C304.247 36.92 307.167 40.04 309.087 44.04C311.007 48.04 311.967 52.68 311.967 57.96C311.967 63.64 310.687 68.56 308.127 72.72C305.647 76.8 302.207 79.96 297.807 82.2C293.487 84.36 288.447 85.44 282.687 85.44ZM282.087 72.48C285.047 72.48 287.487 71.88 289.407 70.68C291.327 69.4 292.767 67.68 293.727 65.52C294.687 63.28 295.167 60.8 295.167 58.08C295.167 55.2 294.687 52.68 293.727 50.52C292.767 48.36 291.327 46.68 289.407 45.48C287.487 44.2 285.047 43.56 282.087 43.56C279.207 43.56 276.767 44.2 274.767 45.48C272.847 46.68 271.407 48.36 270.447 50.52C269.487 52.68 269.007 55.2 269.007 58.08C269.007 60.88 269.487 63.4 270.447 65.64C271.407 67.8 272.847 69.48 274.767 70.68C276.767 71.88 279.207 72.48 282.087 72.48Z" fill="#222222" fill-opacity="0.04"/>
<path d="M33.3467 87.0215C31.1739 87.0215 29.5371 87.9527 29.5371 90.4924V94.6689C29.5371 97.2086 31.1739 98.1399 33.3467 98.1399C35.4913 98.1399 37.1563 97.2088 37.1563 94.6689V90.4924C37.1563 87.9527 35.4913 87.0215 33.3467 87.0215ZM35.1245 94.6689C35.1245 95.826 34.4472 96.3338 33.3467 96.3338C32.2462 96.3338 31.5971 95.8258 31.5971 94.6689V90.4924C31.5971 89.3355 32.2462 88.8275 33.3467 88.8275C34.4472 88.8275 35.1245 89.3355 35.1245 90.4924V94.6689Z" fill="#BEAD8E"/>
<path d="M32.2462 76.3262C31.9076 76.3262 31.5689 76.4674 31.3997 76.8342L21.0432 97.5754C20.9586 97.7164 20.9303 97.8576 20.9303 97.9987C20.9303 98.5067 21.3818 99.0428 22.0308 99.0428C22.4259 99.0428 22.821 98.8454 22.9903 98.5067L33.3468 77.8502C33.4032 77.7091 33.4314 77.568 33.4314 77.3987C33.4314 76.7494 32.8106 76.3262 32.2462 76.3262Z" fill="#BEAD8E"/>
<path d="M20.8738 77.4268C18.7009 77.4268 17.0642 78.358 17.0642 80.8978V85.0742C17.0642 87.6139 18.701 88.5452 20.8738 88.5452C23.0184 88.5452 24.6834 87.614 24.6834 85.0742V80.8978C24.6834 78.358 23.0184 77.4268 20.8738 77.4268ZM22.6515 85.0742C22.6515 86.2312 21.9742 86.7391 20.8737 86.7391C19.7731 86.7391 19.1241 86.2311 19.1241 85.0742V80.8978C19.1241 79.7407 19.7731 79.2329 20.8737 79.2329C21.9742 79.2329 22.6515 79.7409 22.6515 80.8978V85.0742Z" fill="#BEAD8E"/>
<path d="M54.0671 87.3162C54.7781 86.3348 55.0537 85.137 54.8432 83.9437C54.6328 82.7503 53.9641 81.719 52.9604 81.0399C52.0741 80.4403 51.6759 79.3462 51.9694 78.3171C52.3018 77.1517 52.1512 75.932 51.5453 74.8825C50.9393 73.833 49.9584 73.0927 48.783 72.7979C47.745 72.5375 46.9967 71.6455 46.9205 70.5783C46.8343 69.3695 46.2755 68.2747 45.3472 67.4957C44.4189 66.7169 43.2441 66.3569 42.0384 66.4816C40.9741 66.5919 39.9656 66.0097 39.529 65.0327C39.0345 63.9264 38.1351 63.0888 36.9964 62.6743C35.8576 62.2598 34.6303 62.3234 33.5403 62.853C32.5779 63.3208 31.4312 63.1184 30.6867 62.3498C29.8436 61.4795 28.7119 61 27.5 61C26.2882 61 25.1565 61.4795 24.3135 62.3499C23.5692 63.1186 22.4224 63.3208 21.46 62.8531C20.37 62.3234 19.1426 62.2599 18.0038 62.6745C16.8651 63.0889 15.9656 63.9265 15.4712 65.0328C15.0345 66.0097 14.0268 66.5923 12.9618 66.4817C11.7568 66.3565 10.5814 66.7169 9.65306 67.4959C8.72474 68.2749 8.16597 69.3695 8.07973 70.5784C8.00357 71.6457 7.25519 72.5376 6.21721 72.798C5.04183 73.0928 4.06078 73.8331 3.4549 74.8826C2.84902 75.9321 2.69827 77.1518 3.03079 78.3173C3.32431 79.3462 2.92597 80.4405 2.03966 81.0401C1.03597 81.7192 0.367276 82.7505 0.156985 83.9438C-0.0534368 85.1373 0.222153 86.335 0.933112 87.3163C1.56071 88.1829 1.56071 89.3473 0.933112 90.2138C0.222153 91.1953 -0.0534368 92.3929 0.156985 93.5865C0.367407 94.7799 1.0361 95.8111 2.03979 96.4901C2.9261 97.0897 3.32431 98.1838 3.03079 99.2129C2.69841 100.378 2.84902 101.598 3.4549 102.647C4.06078 103.697 5.04183 104.437 6.21721 104.732C7.25506 104.993 8.00357 105.885 8.07973 106.952C8.16597 108.161 8.72474 109.255 9.65306 110.034C10.5814 110.813 11.7565 111.174 12.9618 111.048C14.0264 110.938 15.0346 111.52 15.4712 112.497C15.9657 113.604 16.8651 114.441 18.0038 114.856C19.1426 115.27 20.3699 115.207 21.4598 114.677C22.4222 114.21 23.569 114.412 24.3134 115.18C25.1564 116.051 26.288 116.53 27.4999 116.53C28.7118 116.53 29.8435 116.051 30.6865 115.18C31.4309 114.412 32.5775 114.21 33.54 114.677C34.6299 115.207 35.8574 115.27 36.9961 114.856C38.1349 114.441 39.0344 113.604 39.5288 112.497C39.9653 111.52 40.9735 110.938 42.0381 111.048C43.2435 111.174 44.4186 110.813 45.3469 110.034C46.2752 109.255 46.834 108.161 46.9202 106.952C46.9964 105.885 47.7448 104.993 48.7828 104.732C49.9581 104.437 50.9392 103.697 51.5451 102.648C52.1509 101.598 52.3017 100.378 51.9692 99.213C51.6757 98.1841 52.074 97.0898 52.9602 96.4902C53.9639 95.8112 54.6326 94.7799 54.843 93.5866C55.0534 92.3932 54.7778 91.1954 54.0669 90.214C53.4394 89.3471 53.4394 88.1828 54.0671 87.3162ZM52.4747 91.3672C52.8704 91.9136 53.0239 92.5804 52.9068 93.2448C52.7897 93.9093 52.4174 94.4834 51.8586 94.8614C50.2667 95.9385 49.5514 97.9038 50.0785 99.7522C50.2636 100.401 50.1797 101.08 49.8424 101.664C49.5051 102.249 48.959 102.661 48.3046 102.825C46.4404 103.293 45.0959 104.895 44.9592 106.812C44.9111 107.485 44.6001 108.094 44.0832 108.528C43.5664 108.962 42.9124 109.162 42.2411 109.093C40.3298 108.895 38.5181 109.94 37.7338 111.695C37.4584 112.311 36.9578 112.777 36.3238 113.008C35.6897 113.239 35.0064 113.203 34.3996 112.909C32.671 112.068 30.6112 112.432 29.2741 113.812C28.8048 114.297 28.1748 114.564 27.5 114.564C26.8253 114.564 26.1954 114.297 25.726 113.812C24.869 112.927 23.7149 112.461 22.5417 112.461C21.8845 112.461 21.2212 112.607 20.6005 112.909C19.9938 113.204 19.3103 113.239 18.6763 113.008C18.0423 112.777 17.5417 112.311 17.2663 111.695C16.4821 109.94 14.6702 108.895 12.7591 109.093C12.0877 109.162 11.4338 108.962 10.917 108.528C10.4001 108.094 10.0891 107.485 10.0411 106.812C9.90431 104.895 8.55986 103.293 6.69563 102.825C6.04121 102.661 5.495 102.249 5.15778 101.665C4.82042 101.08 4.73667 100.401 4.9217 99.7524C5.44881 97.9042 4.7334 95.9388 3.14163 94.8617C2.58286 94.4836 2.21069 93.9096 2.09344 93.2451C1.97619 92.5807 2.12969 91.9138 2.52554 91.3675C3.65302 89.8109 3.65302 87.7194 2.52554 86.1629C2.12982 85.6166 1.97632 84.9498 2.09344 84.2854C2.21069 83.6209 2.58286 83.0468 3.14163 82.6687C4.73353 81.5916 5.44881 79.6264 4.9217 77.778C4.73667 77.1292 4.82055 76.4502 5.15791 75.8659C5.49526 75.2816 6.04134 74.8695 6.69577 74.7053C8.55986 74.2376 9.90431 72.6354 10.0411 70.7184C10.0891 70.0454 10.4003 69.436 10.917 69.0023C11.4339 68.5686 12.0886 68.3682 12.7591 68.4377C14.6707 68.6356 16.4821 67.5902 17.2665 65.8354C17.5418 65.2194 18.0426 64.753 18.6765 64.5223C19.3106 64.2915 19.9938 64.327 20.6006 64.6218C22.3291 65.4619 24.389 65.0986 25.7261 63.7181C26.1955 63.2334 26.8255 62.9666 27.5002 62.9666C28.1749 62.9666 28.8048 63.2335 29.2742 63.7181C30.6112 65.0988 32.6711 65.4619 34.3997 64.6218C35.0065 64.327 35.6898 64.2916 36.3239 64.5223C36.9578 64.753 37.4586 65.2194 37.7339 65.8354C38.5181 67.5901 40.3295 68.6356 42.2412 68.4377C42.9125 68.3686 43.5664 68.5686 44.0833 69.0023C44.6001 69.436 44.9113 70.0454 44.9593 70.7184C45.0961 72.6355 46.4405 74.2376 48.3047 74.7053C48.9591 74.8695 49.5052 75.2816 49.8426 75.8659C50.1799 76.4502 50.2638 77.1292 50.0788 77.778C49.5517 79.6263 50.2671 81.5916 51.8589 82.6687C52.4176 83.0468 52.7899 83.6209 52.9072 84.2854C53.0243 84.9498 52.8708 85.6166 52.4751 86.1629C51.3472 87.7193 51.3472 89.8108 52.4747 91.3672Z" fill="#BEAD8E"/>
<path d="M47.2726 90.1383C46.7335 90.0747 46.2446 90.46 46.1807 90.9992C45.063 100.45 37.0322 107.577 27.5 107.577C17.968 107.577 9.93699 100.45 8.81932 90.9992C8.75546 90.4599 8.26579 90.0744 7.72743 90.1383C7.18829 90.2021 6.80278 90.6909 6.86651 91.2302C8.10117 101.67 16.9717 109.543 27.5 109.543C38.0284 109.543 46.8989 101.67 48.1335 91.2302C48.1973 90.6908 47.8117 90.202 47.2726 90.1383Z" fill="#BEAD8E"/>
<path d="M48.1485 86.4308C46.9725 75.916 38.0955 67.9868 27.5001 67.9868C16.9046 67.9868 8.02767 75.916 6.85151 86.4308C6.79119 86.9703 7.17971 87.4567 7.71937 87.5172C8.25786 87.5773 8.74531 87.189 8.80576 86.6493C9.8703 77.131 17.9072 69.9531 27.5001 69.9531C37.093 69.9531 45.1298 77.1309 46.1944 86.6493C46.2505 87.1518 46.6762 87.5233 47.1702 87.5233C47.2067 87.5233 47.2436 87.5214 47.2806 87.5172C47.8203 87.4569 48.2088 86.9705 48.1485 86.4308Z" fill="#BEAD8E"/>
<path d="M40.0702 113.563C39.5273 113.563 39.0871 114.004 39.0871 114.547V125.541L27.879 120.861C27.6366 120.76 27.3636 120.76 27.1214 120.861L15.9133 125.541V114.547C15.9133 114.004 15.4731 113.563 14.9302 113.563C14.3872 113.563 13.947 114.004 13.947 114.547V127.017C13.947 127.346 14.1115 127.653 14.3851 127.835C14.6588 128.017 15.0055 128.051 15.309 127.924L27.5001 122.834L39.6914 127.924C39.8132 127.975 39.9418 128 40.0701 128C40.2613 128 40.4514 127.944 40.6151 127.835C40.8889 127.653 41.0532 127.346 41.0532 127.017V114.547C41.0534 114.004 40.6132 113.563 40.0702 113.563Z" fill="#BEAD8E"/>
</svg>
