<svg width="318" height="124" viewBox="0 0 318 124" fill="none" xmlns="http://www.w3.org/2000/svg">
<path d="M215.76 85.44C210.8 85.44 206.44 84.72 202.68 83.28C198.92 81.76 195.76 79.36 193.2 76.08C190.72 72.72 188.84 68.32 187.56 62.88C186.36 57.44 185.76 50.76 185.76 42.84C185.76 34.84 186.36 28.16 187.56 22.8C188.84 17.36 190.72 12.96 193.2 9.6C195.76 6.24 198.92 3.83999 202.68 2.4C206.44 0.959999 210.8 0.239998 215.76 0.239998C220.8 0.239998 225.16 0.959999 228.84 2.4C232.52 3.83999 235.6 6.24 238.08 9.6C240.64 12.96 242.52 17.36 243.72 22.8C245 28.16 245.64 34.84 245.64 42.84C245.64 50.76 245 57.44 243.72 62.88C242.52 68.32 240.64 72.72 238.08 76.08C235.6 79.36 232.52 81.76 228.84 83.28C225.16 84.72 220.8 85.44 215.76 85.44ZM215.76 72.48C219.28 72.48 221.96 71.56 223.8 69.72C225.64 67.8 226.92 64.92 227.64 61.08C228.36 57.24 228.72 52.44 228.72 46.68V39.24C228.72 33.4 228.36 28.56 227.64 24.72C226.92 20.8 225.64 17.88 223.8 15.96C221.96 14.04 219.28 13.08 215.76 13.08C212.24 13.08 209.52 14.04 207.6 15.96C205.76 17.88 204.48 20.76 203.76 24.6C203.04 28.36 202.68 33.16 202.68 39V46.44C202.68 52.28 203.04 57.16 203.76 61.08C204.48 64.92 205.76 67.8 207.6 69.72C209.52 71.56 212.24 72.48 215.76 72.48ZM287.247 85.44C281.007 85.44 275.567 84.36 270.927 82.2C266.367 79.96 262.847 76.8 260.367 72.72C257.887 68.64 256.647 63.8 256.647 58.2H273.087C273.087 61 273.607 63.52 274.647 65.76C275.767 67.92 277.367 69.6 279.447 70.8C281.527 71.92 283.967 72.48 286.767 72.48C289.487 72.48 291.807 71.88 293.727 70.68C295.727 69.48 297.287 67.76 298.407 65.52C299.527 63.2 300.087 60.36 300.087 57C300.087 53.88 299.527 51.28 298.407 49.2C297.367 47.04 295.847 45.44 293.847 44.4C291.927 43.28 289.647 42.72 287.007 42.72C284.927 42.72 283.087 43.08 281.487 43.8C279.967 44.44 278.647 45.24 277.527 46.2C276.407 47.16 275.447 48.2 274.647 49.32L259.647 47.4L263.007 1.67999H312.447V16.44H276.927L275.607 35.04C276.487 34.4 277.647 33.72 279.087 33C280.527 32.28 282.287 31.64 284.367 31.08C286.527 30.44 289.007 30.12 291.807 30.12C296.607 30.12 300.887 31.12 304.647 33.12C308.487 35.12 311.527 38.12 313.767 42.12C316.007 46.04 317.127 51.04 317.127 57.12C317.127 62.96 315.887 68 313.407 72.24C311.007 76.48 307.567 79.76 303.087 82.08C298.687 84.32 293.407 85.44 287.247 85.44Z" fill="#222222" fill-opacity="0.04"/>
<path d="M37.8549 106.08H56.7822C57.492 106.08 57.9652 105.614 57.9652 104.914V94.4172C57.9652 93.7175 57.492 93.251 56.7822 93.251H37.8549C37.1451 93.251 36.6719 93.7175 36.6719 94.4172V104.914C36.6718 105.614 37.1451 106.08 37.8549 106.08ZM39.0378 95.5835H55.5993V103.748H39.0378V95.5835Z" fill="#BEAD8E"/>
<path d="M5.91485 90.918H15.3786C16.0884 90.918 16.5615 90.4515 16.5615 89.7517C16.5615 89.0519 16.0884 88.5854 15.3786 88.5854H5.91485C5.20507 88.5854 4.73193 89.0519 4.73193 89.7517C4.73193 90.4515 5.20507 90.918 5.91485 90.918Z" fill="#BEAD8E"/>
<path d="M20.1104 90.918H29.5742C30.2839 90.918 30.7571 90.4515 30.7571 89.7517C30.7571 89.0519 30.2839 88.5854 29.5742 88.5854H20.1104C19.4006 88.5854 18.9275 89.0519 18.9275 89.7517C18.9275 90.4515 19.4006 90.918 20.1104 90.918Z" fill="#BEAD8E"/>
<path d="M5.91485 95.5835H21.2933C22.0031 95.5835 22.4763 95.117 22.4763 94.4172C22.4763 93.7174 22.0031 93.251 21.2933 93.251H5.91485C5.20507 93.251 4.73193 93.7174 4.73193 94.4172C4.73193 95.117 5.20507 95.5835 5.91485 95.5835Z" fill="#BEAD8E"/>
<path d="M29.574 93.2505H26.0251C25.3154 93.2505 24.8422 93.717 24.8422 94.4167C24.8422 95.1165 25.3154 95.583 26.0251 95.583H29.574C30.2838 95.583 30.757 95.1165 30.757 94.4167C30.757 93.717 30.2838 93.2505 29.574 93.2505Z" fill="#BEAD8E"/>
<path d="M69.9131 78.7885C69.0851 77.7389 68.0205 77.1557 66.7191 77.0391L63.88 76.6999V73.4235V71.0909C63.88 68.5251 61.7507 66.4258 59.1482 66.4258H4.73181C2.12933 66.4256 0 68.525 0 71.0909V73.4236V82.7541V108.413C0 110.519 1.43578 112.31 3.38988 112.884C3.33027 115.244 5.1409 117.292 7.57106 117.51L62.224 123.575C62.3422 123.575 62.5789 123.575 62.6971 123.575C65.0631 123.575 67.1924 121.825 67.4289 119.609L70.9778 82.1709C71.0961 81.0045 70.7412 79.7215 69.9131 78.7885ZM2.36597 74.5899H61.5142V77.6223V81.5877H2.36597V74.5899ZM4.73181 68.7583H59.1481C60.4494 68.7583 61.5141 69.808 61.5141 71.0909V72.2572H2.36597V71.0909C2.36597 69.808 3.43064 68.7583 4.73181 68.7583ZM2.36597 108.413V83.9202H61.5142V108.413C61.5142 109.696 60.4495 110.745 59.1482 110.745H4.8502H4.73195C3.43064 110.745 2.36597 109.696 2.36597 108.413ZM68.6118 81.7043L65.063 119.143C64.9447 120.426 63.7616 121.358 62.4605 121.242L7.92581 115.177C6.74289 115.061 5.91473 114.128 5.79648 113.078H59.1481C61.7506 113.078 63.8799 110.978 63.8799 108.413V82.7539V78.9051L66.6008 79.1384C67.1923 79.1384 67.7837 79.4883 68.1386 79.9548C68.4936 80.4213 68.7302 81.1211 68.6118 81.7043Z" fill="#BEAD8E"/>
</svg>
